HIERARCHY
ROOT Hips
{
	OFFSET -0.001795 -0.223333 0.028219
	CHANNELS 6 Xposition Yposition Zposition Zrotation Yrotation Xrotation 
	JOINT LeftUpLeg
	{
		OFFSET 0.069520 -0.091406 -0.006815
		CHANNELS 3 Zrotation Yrotation Xrotation
		JOINT LeftLeg
		{
			OFFSET 0.034277 -0.375199 -0.004496
			CHANNELS 3 Zrotation Yrotation Xrotation
			JOINT LeftFoot
			{
				OFFSET -0.013596 -0.397961 -0.043693
				CHANNELS 3 Zrotation Yrotation Xrotation
				JOINT LeftToe
				{
					OFFSET 0.026358 -0.055791 0.119288
					CHANNELS 3 Zrotation Yrotation Xrotation
					End Site
					{
						OFFSET 0.000000 0.000000 0.000000
					}
				}
			}
		}
	}
	JOINT RightUpLeg
	{
		OFFSET -0.067670 -0.090522 -0.004320
		CHANNELS 3 Zrotation Yrotation Xrotation
		JOINT RightLeg
		{
			OFFSET -0.038290 -0.382569 -0.008850
			CHANNELS 3 Zrotation Yrotation Xrotation
			JOINT RightFoot
			{
				OFFSET 0.015774 -0.398415 -0.042312
				CHANNELS 3 Zrotation Yrotation Xrotation
				JOINT RightToe
				{
					OFFSET -0.025372 -0.048144 0.123348
					CHANNELS 3 Zrotation Yrotation Xrotation
					End Site
					{
						OFFSET 0.000000 0.000000 0.000000
					}
				}
			}
		}
	}
	JOINT Spine
	{
		OFFSET -0.002533 0.108963 -0.026696
		CHANNELS 3 Zrotation Yrotation Xrotation
		JOINT Spine1
		{
			OFFSET 0.005487 0.135180 0.001092
			CHANNELS 3 Zrotation Yrotation Xrotation
			JOINT Spine2
			{
				OFFSET 0.001457 0.052922 0.025425
				CHANNELS 3 Zrotation Yrotation Xrotation
				JOINT Neck
				{
					OFFSET -0.002778 0.213870 -0.042857
					CHANNELS 3 Zrotation Yrotation Xrotation
					JOINT Head
					{
						OFFSET 0.005152 0.064970 0.051349
						CHANNELS 3 Zrotation Yrotation Xrotation
						End Site
						{
							OFFSET 0.000000 0.000000 0.000000
						}
					}
				}
				JOINT LeftShoulder
				{
					OFFSET 0.078845 0.121749 -0.034090
					CHANNELS 3 Zrotation Yrotation Xrotation
					JOINT LeftArm
					{
						OFFSET 0.090977 0.030469 -0.008868
						CHANNELS 3 Zrotation Yrotation Xrotation
						JOINT LeftForeArm
						{
							OFFSET 0.259612 -0.012772 -0.027456
							CHANNELS 3 Zrotation Yrotation Xrotation
							JOINT LeftHand
							{
								OFFSET 0.249234 0.008986 -0.001171
								CHANNELS 3 Zrotation Yrotation Xrotation
								End Site
								{
									OFFSET 0.000000 0.000000 0.000000
								}
							}
						}
					}
				}
				JOINT RightShoulder
				{
					OFFSET -0.081759 0.118833 -0.038615
					CHANNELS 3 Zrotation Yrotation Xrotation
					JOINT RightArm
					{
						OFFSET -0.096012 0.032551 -0.009143
						CHANNELS 3 Zrotation Yrotation Xrotation
						JOINT RightForeArm
						{
							OFFSET -0.253742 -0.013329 -0.021401
							CHANNELS 3 Zrotation Yrotation Xrotation
							JOINT RightHand
							{
								OFFSET -0.255298 0.007772 -0.005559
								CHANNELS 3 Zrotation Yrotation Xrotation
								End Site
								{
									OFFSET 0.000000 0.000000 0.000000
								}
							}
						}
					}
				}
			}
		}
	}
}
MOTION
Frames: 7
Frame Time: 0.050000
-0.018307 0.954628 -0.016714 2.025342 -12.169678 6.817551 7.281709 -0.207177 -7.974188 -1.791960 0.244494 -0.496704 3.835438 10.236634 19.422855 0.000000 0.000000 0.000000 -12.118318 0.914882 -12.205019 5.836774 -0.439661 3.446090 -5.619381 -17.603941 18.396571 0.000000 0.000000 0.000000 8.554007 -2.019262 19.166129 -4.903253 1.659502 -14.694212 -2.113148 10.062607 29.357613 22.073148 -12.191570 -23.017282 0.000000 0.000000 0.000000 -8.990693 -20.979769 8.427347 -42.169595 -19.230136 -0.777180 -107.571537 -81.475801 105.038098 0.000000 0.000000 0.000000 16.984262 7.578334 3.873875 26.077659 30.174493 0.924084 -33.227716 70.596578 -19.142841 0.000000 0.000000 0.000000 
-0.019083 0.954604 -0.015974 1.940095 -12.073750 7.048865 7.603401 -0.188865 -8.049215 -1.837977 0.254371 -0.839805 3.749149 10.154010 19.698607 0.000000 0.000000 0.000000 -12.017957 0.917208 -12.099547 5.773408 -0.433650 2.847121 -5.563120 -17.511752 18.438734 0.000000 0.000000 0.000000 8.472185 -2.024650 19.296501 -4.928174 1.655360 -15.247731 -2.035698 9.880814 29.701426 21.947734 -12.177420 -22.931677 0.000000 0.000000 0.000000 -9.061142 -21.130875 8.536594 -42.803347 -20.208553 -0.459007 -93.496107 -82.281171 91.528279 0.000000 0.000000 0.000000 16.402603 6.651651 3.338854 25.993787 29.257371 0.721903 -32.927072 74.395300 -20.351301 0.000000 0.000000 0.000000 
-0.020059 0.954823 -0.014921 1.768168 -12.103853 7.343551 7.897373 -0.170419 -8.094882 -1.847431 0.260117 -1.177601 3.667184 10.042802 19.830623 0.000000 0.000000 0.000000 -11.849564 0.925425 -11.888117 5.682989 -0.421672 1.926584 -5.434358 -17.351667 18.687232 0.000000 0.000000 0.000000 8.560969 -2.037847 19.131661 -5.018612 1.678145 -15.416061 -2.164442 9.612653 29.798617 21.908819 -12.364690 -22.417541 0.000000 0.000000 0.000000 -9.019977 -20.955627 8.506239 -43.401666 -20.715923 -0.266861 -83.154082 -82.237131 81.334299 0.000000 0.000000 0.000000 16.241880 6.108476 2.983995 25.444140 28.240339 0.474394 -33.442569 78.780538 -22.653976 0.000000 0.000000 0.000000 
-0.021258 0.955048 -0.013562 1.580368 -12.228016 7.619611 8.231371 -0.144149 -7.992653 -1.787211 0.258303 -1.529247 3.609559 9.971072 20.154038 0.000000 0.000000 0.000000 -11.684252 0.938604 -11.833755 5.701349 -0.416991 1.215907 -5.541456 -17.582472 19.096660 0.000000 0.000000 0.000000 8.424702 -1.996798 18.861990 -4.993756 1.658726 -15.716787 -2.124646 9.764371 30.130165 21.874134 -12.587173 -21.761332 0.000000 0.000000 0.000000 -9.014182 -20.763905 8.428223 -43.893501 -21.025397 -0.172644 -79.239380 -81.979792 77.302410 0.000000 0.000000 0.000000 15.800101 5.166180 2.501074 25.136186 27.371097 0.259617 -33.515222 83.190304 -24.597121 0.000000 0.000000 0.000000 
-0.022661 0.955402 -0.011940 1.346186 -12.350260 7.616057 8.582684 -0.110520 -7.712476 -1.732624 0.256101 -1.771466 3.468978 9.751996 20.148906 0.000000 0.000000 0.000000 -11.335306 0.940528 -11.517564 5.597776 -0.404741 0.777829 -5.196368 -17.102015 19.222569 0.000000 0.000000 0.000000 8.350669 -1.978144 18.839647 -5.194318 1.717904 -15.763216 -2.057467 9.588891 30.167350 21.721295 -12.569442 -21.593871 0.000000 0.000000 0.000000 -8.832997 -20.556864 8.349107 -44.416397 -20.847857 -0.212434 -79.092483 -81.704721 77.026720 0.000000 0.000000 0.000000 15.474137 4.600235 2.146786 24.884899 26.499454 0.102914 -25.848042 87.413742 -19.329493 0.000000 0.000000 0.000000 
-0.024127 0.955737 -0.010208 1.060153 -12.659253 7.534311 8.932247 -0.069969 -7.333020 -1.497652 0.233912 -2.019539 3.371303 9.623021 20.673710 0.000000 0.000000 0.000000 -11.131660 0.943340 -11.158027 5.646778 -0.401821 0.515955 -4.867476 -16.689725 19.489583 0.000000 0.000000 0.000000 8.025578 -1.902978 18.810454 -5.093659 1.672818 -16.036454 -2.117782 9.779758 30.337400 21.715455 -12.615129 -21.491807 0.000000 0.000000 0.000000 -8.453619 -19.971125 8.048742 -45.106361 -20.675758 -0.268936 -80.816975 -81.424070 78.519807 0.000000 0.000000 0.000000 15.340751 3.799286 1.737040 24.190279 25.837274 -0.084460 132.298927 89.164347 137.203955 0.000000 0.000000 0.000000 
-0.025519 0.956040 -0.008493 0.747296 -12.847794 7.402468 9.302181 -0.031691 -6.854560 -1.373294 0.227886 -2.397660 3.131465 9.235169 20.488186 0.000000 0.000000 0.000000 -10.867725 0.940467 -10.848416 5.529369 -0.390196 0.379895 -4.362376 -16.010269 19.755303 0.000000 0.000000 0.000000 7.915632 -1.869450 18.738331 -5.286361 1.724745 -16.182920 -2.117878 9.606606 30.527639 21.643761 -12.741950 -21.131521 0.000000 0.000000 0.000000 -8.137305 -19.569878 7.878232 -45.571107 -20.259361 -0.424612 -84.391687 -81.252687 82.058052 0.000000 0.000000 0.000000 14.925584 3.510845 1.529192 23.310654 25.407729 -0.222467 143.045834 87.154200 146.676160 0.000000 0.000000 0.000000 
